<mxfile host="app.diagrams.net" agent="Mozilla/5.0 (Macintosh; Intel Mac OS X 10_15_7) AppleWebKit/537.36 (KHTML, like Gecko) Chrome/134.0.0.0 Safari/537.36" version="26.2.3">
  <diagram name="Page-1" id="GW-1Cn3s6EK7SwXXhcjG">
    <mxGraphModel dx="1349" dy="1696" grid="0" gridSize="10" guides="1" tooltips="1" connect="1" arrows="1" fold="1" page="0" pageScale="1" pageWidth="850" pageHeight="1100" math="0" shadow="0">
      <root>
        <mxCell id="0" />
        <mxCell id="1" parent="0" />
        <mxCell id="mBXEKz3svqvqHdSbfsig-174" value="package" style="shape=folder;fontStyle=1;spacingTop=10;tabWidth=40;tabHeight=14;tabPosition=left;html=1;whiteSpace=wrap;" parent="1" vertex="1">
          <mxGeometry x="-691" y="-726" width="3474" height="2513" as="geometry" />
        </mxCell>
        <mxCell id="mBXEKz3svqvqHdSbfsig-172" value="package" style="shape=folder;fontStyle=1;spacingTop=10;tabWidth=40;tabHeight=14;tabPosition=left;html=1;whiteSpace=wrap;" parent="1" vertex="1">
          <mxGeometry x="353" y="-91" width="1001" height="1283" as="geometry" />
        </mxCell>
        <mxCell id="mBXEKz3svqvqHdSbfsig-170" value="" style="shape=folder;fontStyle=1;spacingTop=10;tabWidth=40;tabHeight=14;tabPosition=left;html=1;whiteSpace=wrap;" parent="1" vertex="1">
          <mxGeometry x="1391" y="-441" width="300" height="366" as="geometry" />
        </mxCell>
        <mxCell id="mBXEKz3svqvqHdSbfsig-168" value="" style="shape=folder;fontStyle=1;spacingTop=10;tabWidth=40;tabHeight=14;tabPosition=left;html=1;whiteSpace=wrap;" parent="1" vertex="1">
          <mxGeometry x="1648" y="792" width="365" height="364" as="geometry" />
        </mxCell>
        <mxCell id="mBXEKz3svqvqHdSbfsig-166" value="package" style="shape=folder;fontStyle=1;spacingTop=10;tabWidth=40;tabHeight=14;tabPosition=left;html=1;whiteSpace=wrap;" parent="1" vertex="1">
          <mxGeometry x="1697" y="-362" width="956" height="1120" as="geometry" />
        </mxCell>
        <mxCell id="mBXEKz3svqvqHdSbfsig-164" value="" style="shape=folder;fontStyle=1;spacingTop=10;tabWidth=40;tabHeight=14;tabPosition=left;html=1;whiteSpace=wrap;" parent="1" vertex="1">
          <mxGeometry x="-651" y="-37" width="997" height="1026" as="geometry" />
        </mxCell>
        <mxCell id="mBXEKz3svqvqHdSbfsig-162" value="" style="shape=folder;fontStyle=1;spacingTop=10;tabWidth=40;tabHeight=14;tabPosition=left;html=1;whiteSpace=wrap;" parent="1" vertex="1">
          <mxGeometry x="-295" y="-619" width="955" height="483" as="geometry" />
        </mxCell>
        <mxCell id="mBXEKz3svqvqHdSbfsig-55" value="&lt;p style=&quot;margin:0px;margin-top:4px;text-align:center;&quot;&gt;&lt;i&gt;&amp;lt;&amp;lt;Abstract&amp;gt;&amp;gt;&lt;/i&gt;&lt;br&gt;&lt;b&gt;Command&lt;/b&gt;&lt;/p&gt;&lt;hr size=&quot;1&quot; style=&quot;border-style:solid;&quot;&gt;&lt;p style=&quot;margin:0px;margin-left:4px;&quot;&gt;&lt;br&gt;&lt;/p&gt;&lt;hr size=&quot;1&quot; style=&quot;border-style:solid;&quot;&gt;&lt;p style=&quot;margin:0px;margin-left:4px;&quot;&gt;+ execute(): void&lt;br&gt;+ undo(): void&lt;/p&gt;" style="verticalAlign=top;align=left;overflow=fill;html=1;whiteSpace=wrap;" parent="1" vertex="1">
          <mxGeometry x="103" y="-547" width="190" height="111" as="geometry" />
        </mxCell>
        <mxCell id="mBXEKz3svqvqHdSbfsig-97" style="edgeStyle=none;curved=1;rounded=0;orthogonalLoop=1;jettySize=auto;html=1;fontSize=12;startSize=8;endSize=8;entryX=0;entryY=0.25;entryDx=0;entryDy=0;" parent="1" source="mBXEKz3svqvqHdSbfsig-56" target="mBXEKz3svqvqHdSbfsig-62" edge="1">
          <mxGeometry relative="1" as="geometry">
            <mxPoint x="79" y="74" as="targetPoint" />
          </mxGeometry>
        </mxCell>
        <mxCell id="mBXEKz3svqvqHdSbfsig-98" value="modifies" style="edgeLabel;html=1;align=center;verticalAlign=middle;resizable=0;points=[];fontSize=12;" parent="mBXEKz3svqvqHdSbfsig-97" vertex="1" connectable="0">
          <mxGeometry x="0.0393" y="1" relative="1" as="geometry">
            <mxPoint x="-118" y="-113" as="offset" />
          </mxGeometry>
        </mxCell>
        <mxCell id="mBXEKz3svqvqHdSbfsig-56" value="&lt;p style=&quot;margin:0px;margin-top:4px;text-align:center;&quot;&gt;&lt;b&gt;SetJobCommand&lt;/b&gt;&lt;/p&gt;&lt;hr size=&quot;1&quot; style=&quot;border-style:solid;&quot;&gt;&lt;p style=&quot;margin:0px;margin-left:4px;&quot;&gt;+ character: GameCharacter&lt;/p&gt;&lt;p style=&quot;margin:0px;margin-left:4px;&quot;&gt;+ newJob: Job&lt;/p&gt;&lt;p style=&quot;margin:0px;margin-left:4px;&quot;&gt;+ previousJob: Job&lt;/p&gt;&lt;hr size=&quot;1&quot; style=&quot;border-style:solid;&quot;&gt;&lt;p style=&quot;margin:0px;margin-left:4px;&quot;&gt;+ SetJobCommand(GameCharacter character, String jobName)&lt;/p&gt;&lt;p style=&quot;margin:0px;margin-left:4px;&quot;&gt;+ execute(): void&lt;/p&gt;&lt;p style=&quot;margin:0px;margin-left:4px;&quot;&gt;+ undo): void&lt;/p&gt;" style="verticalAlign=top;align=left;overflow=fill;html=1;whiteSpace=wrap;" parent="1" vertex="1">
          <mxGeometry x="-200" y="-338" width="390" height="136" as="geometry" />
        </mxCell>
        <mxCell id="mBXEKz3svqvqHdSbfsig-57" value="" style="endArrow=block;dashed=1;endFill=0;endSize=12;html=1;rounded=0;fontSize=12;curved=1;exitX=0.792;exitY=-0.022;exitDx=0;exitDy=0;entryX=0.25;entryY=1;entryDx=0;entryDy=0;exitPerimeter=0;" parent="1" source="mBXEKz3svqvqHdSbfsig-56" target="mBXEKz3svqvqHdSbfsig-55" edge="1">
          <mxGeometry width="160" relative="1" as="geometry">
            <mxPoint x="200" y="-319" as="sourcePoint" />
            <mxPoint x="360" y="-319" as="targetPoint" />
          </mxGeometry>
        </mxCell>
        <mxCell id="mBXEKz3svqvqHdSbfsig-58" value="implements" style="edgeLabel;html=1;align=center;verticalAlign=middle;resizable=0;points=[];fontSize=12;" parent="mBXEKz3svqvqHdSbfsig-57" vertex="1" connectable="0">
          <mxGeometry x="0.1694" y="-4" relative="1" as="geometry">
            <mxPoint as="offset" />
          </mxGeometry>
        </mxCell>
        <mxCell id="mBXEKz3svqvqHdSbfsig-99" style="edgeStyle=none;curved=1;rounded=0;orthogonalLoop=1;jettySize=auto;html=1;fontSize=12;startSize=8;endSize=8;" parent="1" source="mBXEKz3svqvqHdSbfsig-59" target="mBXEKz3svqvqHdSbfsig-62" edge="1">
          <mxGeometry relative="1" as="geometry" />
        </mxCell>
        <mxCell id="mBXEKz3svqvqHdSbfsig-100" value="modifies" style="edgeLabel;html=1;align=center;verticalAlign=middle;resizable=0;points=[];fontSize=12;" parent="mBXEKz3svqvqHdSbfsig-99" vertex="1" connectable="0">
          <mxGeometry x="0.0607" y="-1" relative="1" as="geometry">
            <mxPoint as="offset" />
          </mxGeometry>
        </mxCell>
        <mxCell id="mBXEKz3svqvqHdSbfsig-59" value="&lt;p style=&quot;margin:0px;margin-top:4px;text-align:center;&quot;&gt;&lt;b&gt;SetRaceCommand&lt;/b&gt;&lt;/p&gt;&lt;hr size=&quot;1&quot; style=&quot;border-style:solid;&quot;&gt;&lt;p style=&quot;margin:0px;margin-left:4px;&quot;&gt;+ character: GameCharacter&lt;/p&gt;&lt;p style=&quot;margin:0px;margin-left:4px;&quot;&gt;+ newRace: Race&lt;/p&gt;&lt;p style=&quot;margin:0px;margin-left:4px;&quot;&gt;+ previousRace: Race&lt;/p&gt;&lt;hr size=&quot;1&quot; style=&quot;border-style:solid;&quot;&gt;&lt;p style=&quot;margin:0px;margin-left:4px;&quot;&gt;+ SetRaceCommand(GameCharacter character, Race race)&lt;/p&gt;&lt;p style=&quot;margin:0px;margin-left:4px;&quot;&gt;+ execute(): void&lt;/p&gt;&lt;p style=&quot;margin:0px;margin-left:4px;&quot;&gt;+ undo): void&lt;/p&gt;" style="verticalAlign=top;align=left;overflow=fill;html=1;whiteSpace=wrap;" parent="1" vertex="1">
          <mxGeometry x="217" y="-338" width="390" height="136" as="geometry" />
        </mxCell>
        <mxCell id="mBXEKz3svqvqHdSbfsig-60" value="" style="endArrow=block;dashed=1;endFill=0;endSize=12;html=1;rounded=0;fontSize=12;curved=1;exitX=0.25;exitY=0;exitDx=0;exitDy=0;entryX=0.75;entryY=1;entryDx=0;entryDy=0;" parent="1" source="mBXEKz3svqvqHdSbfsig-59" target="mBXEKz3svqvqHdSbfsig-55" edge="1">
          <mxGeometry width="160" relative="1" as="geometry">
            <mxPoint x="308" y="-312" as="sourcePoint" />
            <mxPoint x="468" y="-312" as="targetPoint" />
          </mxGeometry>
        </mxCell>
        <mxCell id="mBXEKz3svqvqHdSbfsig-61" value="implements" style="edgeLabel;html=1;align=center;verticalAlign=middle;resizable=0;points=[];fontSize=12;" parent="mBXEKz3svqvqHdSbfsig-60" vertex="1" connectable="0">
          <mxGeometry x="-0.1572" y="1" relative="1" as="geometry">
            <mxPoint x="1" as="offset" />
          </mxGeometry>
        </mxCell>
        <mxCell id="mBXEKz3svqvqHdSbfsig-93" value="" style="edgeStyle=none;curved=1;rounded=0;orthogonalLoop=1;jettySize=auto;html=1;fontSize=12;startSize=8;endSize=8;" parent="1" source="mBXEKz3svqvqHdSbfsig-62" target="mBXEKz3svqvqHdSbfsig-91" edge="1">
          <mxGeometry relative="1" as="geometry" />
        </mxCell>
        <mxCell id="mBXEKz3svqvqHdSbfsig-94" value="has a" style="edgeLabel;html=1;align=center;verticalAlign=middle;resizable=0;points=[];fontSize=12;" parent="mBXEKz3svqvqHdSbfsig-93" vertex="1" connectable="0">
          <mxGeometry x="-0.014" y="1" relative="1" as="geometry">
            <mxPoint as="offset" />
          </mxGeometry>
        </mxCell>
        <mxCell id="4VRerpqA-6s90hHGSyJA-14" value="1" style="edgeLabel;html=1;align=center;verticalAlign=middle;resizable=0;points=[];" vertex="1" connectable="0" parent="mBXEKz3svqvqHdSbfsig-93">
          <mxGeometry x="0.6313" y="2" relative="1" as="geometry">
            <mxPoint as="offset" />
          </mxGeometry>
        </mxCell>
        <mxCell id="mBXEKz3svqvqHdSbfsig-121" style="edgeStyle=none;curved=1;rounded=0;orthogonalLoop=1;jettySize=auto;html=1;fontSize=12;startSize=8;endSize=8;entryX=-0.006;entryY=0.83;entryDx=0;entryDy=0;entryPerimeter=0;" parent="1" source="mBXEKz3svqvqHdSbfsig-62" target="mBXEKz3svqvqHdSbfsig-120" edge="1">
          <mxGeometry relative="1" as="geometry">
            <mxPoint x="1282" y="239" as="targetPoint" />
          </mxGeometry>
        </mxCell>
        <mxCell id="mBXEKz3svqvqHdSbfsig-122" value="has a" style="edgeLabel;html=1;align=center;verticalAlign=middle;resizable=0;points=[];fontSize=12;" parent="mBXEKz3svqvqHdSbfsig-121" vertex="1" connectable="0">
          <mxGeometry x="-0.0708" y="2" relative="1" as="geometry">
            <mxPoint as="offset" />
          </mxGeometry>
        </mxCell>
        <mxCell id="4VRerpqA-6s90hHGSyJA-16" value="1" style="edgeLabel;html=1;align=center;verticalAlign=middle;resizable=0;points=[];" vertex="1" connectable="0" parent="mBXEKz3svqvqHdSbfsig-121">
          <mxGeometry x="0.9685" y="4" relative="1" as="geometry">
            <mxPoint as="offset" />
          </mxGeometry>
        </mxCell>
        <mxCell id="mBXEKz3svqvqHdSbfsig-62" value="&lt;p style=&quot;margin:0px;margin-top:4px;text-align:center;&quot;&gt;&lt;i&gt;&amp;lt;&amp;lt;Abstract&amp;gt;&amp;gt;&lt;/i&gt;&lt;br&gt;&lt;b&gt;GameCharacter&lt;/b&gt;&lt;/p&gt;&lt;hr size=&quot;1&quot; style=&quot;border-style:solid;&quot;&gt;&lt;p style=&quot;margin:0px;margin-left:4px;&quot;&gt;+ name: String&lt;br&gt;+ race: Race&lt;/p&gt;&lt;p style=&quot;margin:0px;margin-left:4px;&quot;&gt;+ job: Job&lt;/p&gt;&lt;p style=&quot;margin:0px;margin-left:4px;&quot;&gt;+ stats: Stats&lt;/p&gt;&lt;hr size=&quot;1&quot; style=&quot;border-style:solid;&quot;&gt;&lt;p style=&quot;margin:0px;margin-left:4px;&quot;&gt;+ GameCharacter(String name, Job job, Race race)&lt;/p&gt;&lt;p style=&quot;margin:0px;margin-left:4px;&quot;&gt;+ getName(): String name&lt;/p&gt;&lt;p style=&quot;margin:0px;margin-left:4px;&quot;&gt;+ getRace(): Race race&lt;/p&gt;&lt;p style=&quot;margin:0px;margin-left:4px;&quot;&gt;+ setRace(Race race): void&lt;/p&gt;&lt;p style=&quot;margin:0px;margin-left:4px;&quot;&gt;+ getJob(): Job job&lt;br&gt;+ setJob(Job job): void&lt;/p&gt;&lt;p style=&quot;margin:0px;margin-left:4px;&quot;&gt;+ rollStats(DiceStrategy dice): void&lt;/p&gt;&lt;p style=&quot;margin:0px;margin-left:4px;&quot;&gt;+ rollStatsWithBonuses(DiceStrategy basedice, DiceStrategy bonusDice): void&lt;/p&gt;&lt;p style=&quot;margin:0px;margin-left:4px;&quot;&gt;+ displayCharacter(): abstract void&lt;/p&gt;" style="verticalAlign=top;align=left;overflow=fill;html=1;whiteSpace=wrap;" parent="1" vertex="1">
          <mxGeometry x="456" y="166" width="429" height="255" as="geometry" />
        </mxCell>
        <mxCell id="mBXEKz3svqvqHdSbfsig-67" value="&lt;p style=&quot;margin:0px;margin-top:4px;text-align:center;&quot;&gt;&lt;b&gt;CharacterBuilder&lt;/b&gt;&lt;/p&gt;&lt;hr size=&quot;1&quot; style=&quot;border-style:solid;&quot;&gt;&lt;p style=&quot;margin:0px;margin-left:4px;&quot;&gt;+ character: GameCharacter&lt;/p&gt;&lt;hr size=&quot;1&quot; style=&quot;border-style:solid;&quot;&gt;&lt;p style=&quot;margin:0px;margin-left:4px;&quot;&gt;+ CharacterBuilder(GameCharacter character)&lt;/p&gt;&lt;p style=&quot;margin:0px;margin-left:4px;&quot;&gt;+ setRace(Race race): CharacterBuilder&lt;/p&gt;&lt;p style=&quot;margin:0px;margin-left:4px;&quot;&gt;+ setJob(Job job): CharacterBuilder&lt;/p&gt;&lt;p style=&quot;margin:0px;margin-left:4px;&quot;&gt;+ rollStats(DiceStrategy dice): CharacterBuilder&lt;/p&gt;&lt;p style=&quot;margin:0px;margin-left:4px;&quot;&gt;+ build(): GameCharacter&lt;/p&gt;" style="verticalAlign=top;align=left;overflow=fill;html=1;whiteSpace=wrap;" parent="1" vertex="1">
          <mxGeometry x="798" y="-46" width="317" height="139" as="geometry" />
        </mxCell>
        <mxCell id="mBXEKz3svqvqHdSbfsig-105" style="edgeStyle=none;curved=1;rounded=0;orthogonalLoop=1;jettySize=auto;html=1;fontSize=12;startSize=8;endSize=8;entryX=0;entryY=1;entryDx=0;entryDy=0;" parent="1" source="mBXEKz3svqvqHdSbfsig-70" target="mBXEKz3svqvqHdSbfsig-77" edge="1">
          <mxGeometry relative="1" as="geometry" />
        </mxCell>
        <mxCell id="mBXEKz3svqvqHdSbfsig-106" value="logs events&lt;div&gt;&lt;br&gt;&lt;/div&gt;" style="edgeLabel;html=1;align=center;verticalAlign=middle;resizable=0;points=[];fontSize=12;" parent="mBXEKz3svqvqHdSbfsig-105" vertex="1" connectable="0">
          <mxGeometry x="-0.13" relative="1" as="geometry">
            <mxPoint x="67" y="-54" as="offset" />
          </mxGeometry>
        </mxCell>
        <mxCell id="mBXEKz3svqvqHdSbfsig-107" style="edgeStyle=none;curved=1;rounded=0;orthogonalLoop=1;jettySize=auto;html=1;entryX=0;entryY=1;entryDx=0;entryDy=0;fontSize=12;startSize=8;endSize=8;" parent="1" source="mBXEKz3svqvqHdSbfsig-70" target="mBXEKz3svqvqHdSbfsig-74" edge="1">
          <mxGeometry relative="1" as="geometry" />
        </mxCell>
        <mxCell id="mBXEKz3svqvqHdSbfsig-108" value="notifies" style="edgeLabel;html=1;align=center;verticalAlign=middle;resizable=0;points=[];fontSize=12;" parent="mBXEKz3svqvqHdSbfsig-107" vertex="1" connectable="0">
          <mxGeometry x="0.0619" relative="1" as="geometry">
            <mxPoint y="-1" as="offset" />
          </mxGeometry>
        </mxCell>
        <mxCell id="mBXEKz3svqvqHdSbfsig-180" value="manages" style="edgeStyle=none;curved=1;rounded=0;orthogonalLoop=1;jettySize=auto;html=1;fontSize=12;startSize=8;endSize=8;" parent="1" source="mBXEKz3svqvqHdSbfsig-70" target="mBXEKz3svqvqHdSbfsig-62" edge="1">
          <mxGeometry relative="1" as="geometry" />
        </mxCell>
        <mxCell id="mBXEKz3svqvqHdSbfsig-70" value="&lt;p style=&quot;margin:0px;margin-top:4px;text-align:center;&quot;&gt;&lt;b&gt;CharacterFacade&lt;/b&gt;&lt;/p&gt;&lt;hr size=&quot;1&quot; style=&quot;border-style:solid;&quot;&gt;&lt;p style=&quot;margin:0px;margin-left:4px;&quot;&gt;+ builder: CharacterBuilder&lt;/p&gt;&lt;p style=&quot;margin:0px;margin-left:4px;&quot;&gt;+ logger: Logger&lt;/p&gt;&lt;p style=&quot;margin:0px;margin-left:4px;&quot;&gt;+ setJobCommand: SetJobCommand&lt;/p&gt;&lt;hr size=&quot;1&quot; style=&quot;border-style:solid;&quot;&gt;&lt;p style=&quot;margin:0px;margin-left:4px;&quot;&gt;+ CharacterFacade(GameCharacter character)&lt;/p&gt;&lt;p style=&quot;margin:0px;margin-left:4px;&quot;&gt;+ fromNew(String name, String raceName): static CharacterFacade&lt;/p&gt;&lt;p style=&quot;margin:0px;margin-left:4px;&quot;&gt;+ setJob(String jobName): void&lt;/p&gt;&lt;p style=&quot;margin:0px;margin-left:4px;&quot;&gt;+ rollStats(DiceStrategy dice): void&lt;/p&gt;&lt;p style=&quot;margin:0px;margin-left:4px;&quot;&gt;+ buildCharacter(): GameCharacter&lt;/p&gt;" style="verticalAlign=top;align=left;overflow=fill;html=1;whiteSpace=wrap;" parent="1" vertex="1">
          <mxGeometry x="979" y="128" width="364" height="160" as="geometry" />
        </mxCell>
        <mxCell id="mBXEKz3svqvqHdSbfsig-74" value="&lt;p style=&quot;margin:0px;margin-top:4px;text-align:center;&quot;&gt;&lt;i&gt;&amp;lt;&amp;lt;Interface&amp;gt;&amp;gt;&lt;/i&gt;&lt;br&gt;&lt;b&gt;Observer&lt;/b&gt;&lt;/p&gt;&lt;hr size=&quot;1&quot; style=&quot;border-style:solid;&quot;&gt;&lt;p style=&quot;margin:0px;margin-left:4px;&quot;&gt;&lt;br&gt;&lt;/p&gt;&lt;hr size=&quot;1&quot; style=&quot;border-style:solid;&quot;&gt;&lt;p style=&quot;margin:0px;margin-left:4px;&quot;&gt;+ update(String message): void&lt;/p&gt;" style="verticalAlign=top;align=left;overflow=fill;html=1;whiteSpace=wrap;" parent="1" vertex="1">
          <mxGeometry x="1441" y="-393" width="190" height="100" as="geometry" />
        </mxCell>
        <mxCell id="mBXEKz3svqvqHdSbfsig-77" value="&lt;p style=&quot;margin:0px;margin-top:4px;text-align:center;&quot;&gt;&lt;b&gt;Logger&lt;/b&gt;&lt;/p&gt;&lt;hr size=&quot;1&quot; style=&quot;border-style:solid;&quot;&gt;&lt;p style=&quot;margin:0px;margin-left:4px;&quot;&gt;&lt;br&gt;&lt;/p&gt;&lt;hr size=&quot;1&quot; style=&quot;border-style:solid;&quot;&gt;&lt;p style=&quot;margin:0px;margin-left:4px;&quot;&gt;+ update(String message): void&lt;/p&gt;" style="verticalAlign=top;align=left;overflow=fill;html=1;whiteSpace=wrap;" parent="1" vertex="1">
          <mxGeometry x="1461" y="-188" width="179" height="90" as="geometry" />
        </mxCell>
        <mxCell id="mBXEKz3svqvqHdSbfsig-80" value="implements" style="endArrow=block;dashed=1;endFill=0;endSize=12;html=1;rounded=0;fontSize=12;curved=1;entryX=0.432;entryY=0.98;entryDx=0;entryDy=0;entryPerimeter=0;exitX=0.5;exitY=0;exitDx=0;exitDy=0;" parent="1" source="mBXEKz3svqvqHdSbfsig-77" target="mBXEKz3svqvqHdSbfsig-74" edge="1">
          <mxGeometry width="160" relative="1" as="geometry">
            <mxPoint x="1353" y="61" as="sourcePoint" />
            <mxPoint x="1401" y="78" as="targetPoint" />
          </mxGeometry>
        </mxCell>
        <mxCell id="mBXEKz3svqvqHdSbfsig-95" value="" style="edgeStyle=none;curved=1;rounded=0;orthogonalLoop=1;jettySize=auto;html=1;fontSize=12;startSize=8;endSize=8;" parent="1" source="mBXEKz3svqvqHdSbfsig-81" target="mBXEKz3svqvqHdSbfsig-82" edge="1">
          <mxGeometry relative="1" as="geometry" />
        </mxCell>
        <mxCell id="mBXEKz3svqvqHdSbfsig-96" value="creates" style="edgeLabel;html=1;align=center;verticalAlign=middle;resizable=0;points=[];fontSize=12;" parent="mBXEKz3svqvqHdSbfsig-95" vertex="1" connectable="0">
          <mxGeometry x="-0.0559" y="-1" relative="1" as="geometry">
            <mxPoint as="offset" />
          </mxGeometry>
        </mxCell>
        <mxCell id="mBXEKz3svqvqHdSbfsig-81" value="&lt;p style=&quot;margin:0px;margin-top:4px;text-align:center;&quot;&gt;&lt;b&gt;JobFactory&lt;/b&gt;&lt;/p&gt;&lt;hr size=&quot;1&quot; style=&quot;border-style:solid;&quot;&gt;&lt;p style=&quot;margin:0px;margin-left:4px;&quot;&gt;+ customJobs: static final Map&amp;lt;String, Job&amp;gt;&lt;/p&gt;&lt;p style=&quot;margin:0px;margin-left:4px;&quot;&gt;+ jobCache: static final Map&amp;lt;String, Job&amp;gt;&lt;/p&gt;&lt;hr size=&quot;1&quot; style=&quot;border-style:solid;&quot;&gt;&lt;p style=&quot;margin:0px;margin-left:4px;&quot;&gt;+ createJob(String jobName): static Job&lt;/p&gt;&lt;p style=&quot;margin:0px;margin-left:4px;&quot;&gt;+ registerCustomJob(String name, int attackPower, int defense, String ability): static void&lt;/p&gt;&lt;p style=&quot;margin:0px;margin-left:4px;&quot;&gt;+ registerCustomJobWithDice(String name, String ability): static void&lt;/p&gt;&lt;p style=&quot;margin:0px;margin-left:4px;&quot;&gt;+ jobExists(String jobName): static boolean&lt;/p&gt;" style="verticalAlign=top;align=left;overflow=fill;html=1;whiteSpace=wrap;" parent="1" vertex="1">
          <mxGeometry x="-350" y="204" width="500" height="137" as="geometry" />
        </mxCell>
        <mxCell id="mBXEKz3svqvqHdSbfsig-82" value="&lt;p style=&quot;margin:0px;margin-top:4px;text-align:center;&quot;&gt;&lt;i&gt;&amp;lt;&amp;lt;Abstract&amp;gt;&amp;gt;&lt;/i&gt;&lt;br&gt;&lt;b&gt;Job&lt;/b&gt;&lt;/p&gt;&lt;hr size=&quot;1&quot; style=&quot;border-style:solid;&quot;&gt;&lt;p style=&quot;margin:0px;margin-left:4px;&quot;&gt;+ jobName: String&lt;br&gt;+ attackPower: int&lt;/p&gt;&lt;p style=&quot;margin:0px;margin-left:4px;&quot;&gt;+ defense: int&lt;/p&gt;&lt;hr size=&quot;1&quot; style=&quot;border-style:solid;&quot;&gt;&lt;p style=&quot;margin:0px;margin-left:4px;&quot;&gt;+ Job&lt;span style=&quot;background-color: transparent; color: light-dark(rgb(0, 0, 0), rgb(255, 255, 255));&quot;&gt;(String name, int attackPower, int defense)&lt;/span&gt;&lt;/p&gt;&lt;p style=&quot;margin:0px;margin-left:4px;&quot;&gt;&lt;span style=&quot;background-color: transparent; color: light-dark(rgb(0, 0, 0), rgb(255, 255, 255));&quot;&gt;+ getJobName(): String jobName&lt;/span&gt;&lt;/p&gt;&lt;p style=&quot;margin:0px;margin-left:4px;&quot;&gt;+ getAttackPower(): int attackPower&lt;span style=&quot;background-color: transparent; color: light-dark(rgb(0, 0, 0), rgb(255, 255, 255));&quot;&gt;&lt;/span&gt;&lt;/p&gt;&lt;p style=&quot;margin:0px;margin-left:4px;&quot;&gt;+ getDefense(): int defense&lt;/p&gt;&lt;p style=&quot;margin:0px;margin-left:4px;&quot;&gt;+ specialAbility(): abstract void&lt;br&gt;&lt;br&gt;&lt;/p&gt;" style="verticalAlign=top;align=left;overflow=fill;html=1;whiteSpace=wrap;" parent="1" vertex="1">
          <mxGeometry x="-56" y="434" width="349" height="197" as="geometry" />
        </mxCell>
        <mxCell id="mBXEKz3svqvqHdSbfsig-89" value="&lt;p style=&quot;margin:0px;margin-top:4px;text-align:center;&quot;&gt;&lt;b&gt;DefaultCharacter&lt;/b&gt;&lt;/p&gt;&lt;hr size=&quot;1&quot; style=&quot;border-style:solid;&quot;&gt;&lt;p style=&quot;margin:0px;margin-left:4px;&quot;&gt;+ type: final String&lt;/p&gt;&lt;hr size=&quot;1&quot; style=&quot;border-style:solid;&quot;&gt;&lt;p style=&quot;margin:0px;margin-left:4px;&quot;&gt;+ DefaultCharacter(String name, Job job, Race race)&lt;/p&gt;&lt;p style=&quot;margin:0px;margin-left:4px;&quot;&gt;&lt;br&gt;&lt;/p&gt;&lt;p style=&quot;margin:0px;margin-left:4px;&quot;&gt;+ displayCharacter(): void&lt;/p&gt;" style="verticalAlign=top;align=left;overflow=fill;html=1;whiteSpace=wrap;" parent="1" vertex="1">
          <mxGeometry x="366" y="523" width="160" height="133" as="geometry" />
        </mxCell>
        <mxCell id="mBXEKz3svqvqHdSbfsig-91" value="&lt;p style=&quot;margin:0px;margin-top:4px;text-align:center;&quot;&gt;&lt;b&gt;Stats&lt;/b&gt;&lt;/p&gt;&lt;hr size=&quot;1&quot; style=&quot;border-style:solid;&quot;&gt;&lt;p style=&quot;margin:0px;margin-left:4px;&quot;&gt;+ strength: int&lt;/p&gt;&lt;p style=&quot;margin:0px;margin-left:4px;&quot;&gt;+ dexterity: int&lt;/p&gt;&lt;p style=&quot;margin:0px;margin-left:4px;&quot;&gt;+ intelligence: int&lt;/p&gt;&lt;hr size=&quot;1&quot; style=&quot;border-style:solid;&quot;&gt;&lt;p style=&quot;margin:0px;margin-left:4px;&quot;&gt;+ Stats()&lt;/p&gt;&lt;p style=&quot;margin:0px;margin-left:4px;&quot;&gt;+ rollStats(DiceStrategy dice): void&lt;/p&gt;&lt;p style=&quot;margin:0px;margin-left:4px;&quot;&gt;+ rollStatsWithBonuses(DiceStrategy baseDice, DiceStrategy bonusDice, Race race, Job job): void&lt;/p&gt;&lt;p style=&quot;margin:0px;margin-left:4px;&quot;&gt;+ displayStats(): void&lt;/p&gt;&lt;p style=&quot;margin:0px;margin-left:4px;&quot;&gt;+ getStrength(): int strength&lt;/p&gt;&lt;p style=&quot;margin:0px;margin-left:4px;&quot;&gt;+ getDexterity(): int dexterity&lt;/p&gt;&lt;p style=&quot;margin:0px;margin-left:4px;&quot;&gt;+ getIntelligence(): int intelligence&lt;/p&gt;" style="verticalAlign=top;align=left;overflow=fill;html=1;whiteSpace=wrap;" parent="1" vertex="1">
          <mxGeometry x="546" y="491" width="532" height="196" as="geometry" />
        </mxCell>
        <mxCell id="mBXEKz3svqvqHdSbfsig-101" style="edgeStyle=none;curved=1;rounded=0;orthogonalLoop=1;jettySize=auto;html=1;entryX=0.933;entryY=-0.005;entryDx=0;entryDy=0;entryPerimeter=0;fontSize=12;startSize=8;endSize=8;" parent="1" source="mBXEKz3svqvqHdSbfsig-67" target="mBXEKz3svqvqHdSbfsig-62" edge="1">
          <mxGeometry relative="1" as="geometry" />
        </mxCell>
        <mxCell id="mBXEKz3svqvqHdSbfsig-102" value="modifies" style="edgeLabel;html=1;align=center;verticalAlign=middle;resizable=0;points=[];fontSize=12;" parent="mBXEKz3svqvqHdSbfsig-101" vertex="1" connectable="0">
          <mxGeometry x="-0.2068" y="2" relative="1" as="geometry">
            <mxPoint as="offset" />
          </mxGeometry>
        </mxCell>
        <mxCell id="mBXEKz3svqvqHdSbfsig-103" style="edgeStyle=none;curved=1;rounded=0;orthogonalLoop=1;jettySize=auto;html=1;entryX=0.75;entryY=1;entryDx=0;entryDy=0;fontSize=12;startSize=8;endSize=8;exitX=0.304;exitY=0;exitDx=0;exitDy=0;exitPerimeter=0;" parent="1" source="mBXEKz3svqvqHdSbfsig-70" target="mBXEKz3svqvqHdSbfsig-67" edge="1">
          <mxGeometry relative="1" as="geometry" />
        </mxCell>
        <mxCell id="mBXEKz3svqvqHdSbfsig-104" value="wraps" style="edgeLabel;html=1;align=center;verticalAlign=middle;resizable=0;points=[];fontSize=12;" parent="mBXEKz3svqvqHdSbfsig-103" vertex="1" connectable="0">
          <mxGeometry x="-0.1031" y="-2" relative="1" as="geometry">
            <mxPoint as="offset" />
          </mxGeometry>
        </mxCell>
        <mxCell id="mBXEKz3svqvqHdSbfsig-109" style="edgeStyle=none;curved=1;rounded=0;orthogonalLoop=1;jettySize=auto;html=1;entryX=0.989;entryY=0.373;entryDx=0;entryDy=0;entryPerimeter=0;fontSize=12;startSize=8;endSize=8;" parent="1" source="mBXEKz3svqvqHdSbfsig-62" target="mBXEKz3svqvqHdSbfsig-82" edge="1">
          <mxGeometry relative="1" as="geometry" />
        </mxCell>
        <mxCell id="mBXEKz3svqvqHdSbfsig-110" value="has a" style="edgeLabel;html=1;align=center;verticalAlign=middle;resizable=0;points=[];fontSize=12;" parent="mBXEKz3svqvqHdSbfsig-109" vertex="1" connectable="0">
          <mxGeometry x="-0.2209" y="-1" relative="1" as="geometry">
            <mxPoint x="-1" as="offset" />
          </mxGeometry>
        </mxCell>
        <mxCell id="4VRerpqA-6s90hHGSyJA-15" value="1" style="edgeLabel;html=1;align=center;verticalAlign=middle;resizable=0;points=[];" vertex="1" connectable="0" parent="mBXEKz3svqvqHdSbfsig-109">
          <mxGeometry x="0.905" y="-2" relative="1" as="geometry">
            <mxPoint as="offset" />
          </mxGeometry>
        </mxCell>
        <mxCell id="mBXEKz3svqvqHdSbfsig-111" value="&lt;p style=&quot;margin:0px;margin-top:4px;text-align:center;&quot;&gt;&lt;i&gt;&amp;lt;&amp;lt;Interface&amp;gt;&amp;gt;&lt;/i&gt;&lt;br&gt;&lt;b&gt;DiceStrategy&lt;/b&gt;&lt;/p&gt;&lt;hr size=&quot;1&quot; style=&quot;border-style:solid;&quot;&gt;&lt;p style=&quot;margin:0px;margin-left:4px;&quot;&gt;&lt;br&gt;&lt;/p&gt;&lt;hr size=&quot;1&quot; style=&quot;border-style:solid;&quot;&gt;&lt;p style=&quot;margin:0px;margin-left:4px;&quot;&gt;+ roll(): int&lt;/p&gt;" style="verticalAlign=top;align=left;overflow=fill;html=1;whiteSpace=wrap;" parent="1" vertex="1">
          <mxGeometry x="1755" y="837" width="190" height="97" as="geometry" />
        </mxCell>
        <mxCell id="mBXEKz3svqvqHdSbfsig-112" style="edgeStyle=none;curved=1;rounded=0;orthogonalLoop=1;jettySize=auto;html=1;entryX=0.005;entryY=0.165;entryDx=0;entryDy=0;entryPerimeter=0;fontSize=12;startSize=8;endSize=8;exitX=1;exitY=0.75;exitDx=0;exitDy=0;" parent="1" source="mBXEKz3svqvqHdSbfsig-62" target="mBXEKz3svqvqHdSbfsig-111" edge="1">
          <mxGeometry relative="1" as="geometry" />
        </mxCell>
        <mxCell id="mBXEKz3svqvqHdSbfsig-113" value="uses" style="edgeLabel;html=1;align=center;verticalAlign=middle;resizable=0;points=[];fontSize=12;" parent="mBXEKz3svqvqHdSbfsig-112" vertex="1" connectable="0">
          <mxGeometry x="0.1633" y="-1" relative="1" as="geometry">
            <mxPoint as="offset" />
          </mxGeometry>
        </mxCell>
        <mxCell id="mBXEKz3svqvqHdSbfsig-114" value="&lt;p style=&quot;margin:0px;margin-top:4px;text-align:center;&quot;&gt;&lt;b&gt;D6&lt;/b&gt;&lt;/p&gt;&lt;hr size=&quot;1&quot; style=&quot;border-style:solid;&quot;&gt;&lt;p style=&quot;margin:0px;margin-left:4px;&quot;&gt;+ random: Random&lt;/p&gt;&lt;hr size=&quot;1&quot; style=&quot;border-style:solid;&quot;&gt;&lt;p style=&quot;margin:0px;margin-left:4px;&quot;&gt;+ roll(): int&lt;/p&gt;" style="verticalAlign=top;align=left;overflow=fill;html=1;whiteSpace=wrap;" parent="1" vertex="1">
          <mxGeometry x="1729" y="1038" width="115" height="90" as="geometry" />
        </mxCell>
        <mxCell id="mBXEKz3svqvqHdSbfsig-115" value="&lt;p style=&quot;margin:0px;margin-top:4px;text-align:center;&quot;&gt;&lt;b&gt;D20&lt;/b&gt;&lt;/p&gt;&lt;hr size=&quot;1&quot; style=&quot;border-style:solid;&quot;&gt;&lt;p style=&quot;margin:0px;margin-left:4px;&quot;&gt;+ random: Random&lt;/p&gt;&lt;hr size=&quot;1&quot; style=&quot;border-style:solid;&quot;&gt;&lt;p style=&quot;margin:0px;margin-left:4px;&quot;&gt;+ roll(): int&lt;/p&gt;" style="verticalAlign=top;align=left;overflow=fill;html=1;whiteSpace=wrap;" parent="1" vertex="1">
          <mxGeometry x="1874" y="1038" width="113" height="90" as="geometry" />
        </mxCell>
        <mxCell id="mBXEKz3svqvqHdSbfsig-116" value="" style="endArrow=block;dashed=1;endFill=0;endSize=12;html=1;rounded=0;fontSize=12;curved=1;exitX=0.25;exitY=0;exitDx=0;exitDy=0;entryX=0.25;entryY=1;entryDx=0;entryDy=0;" parent="1" source="mBXEKz3svqvqHdSbfsig-114" target="mBXEKz3svqvqHdSbfsig-111" edge="1">
          <mxGeometry width="160" relative="1" as="geometry">
            <mxPoint x="1643" y="1074" as="sourcePoint" />
            <mxPoint x="1637.3865079365078" y="985" as="targetPoint" />
          </mxGeometry>
        </mxCell>
        <mxCell id="mBXEKz3svqvqHdSbfsig-117" value="implements" style="edgeLabel;html=1;align=center;verticalAlign=middle;resizable=0;points=[];fontSize=12;" parent="mBXEKz3svqvqHdSbfsig-116" vertex="1" connectable="0">
          <mxGeometry x="-0.1094" y="2" relative="1" as="geometry">
            <mxPoint as="offset" />
          </mxGeometry>
        </mxCell>
        <mxCell id="mBXEKz3svqvqHdSbfsig-118" value="" style="endArrow=block;dashed=1;endFill=0;endSize=12;html=1;rounded=0;fontSize=12;curved=1;exitX=0.25;exitY=0;exitDx=0;exitDy=0;entryX=0.75;entryY=1;entryDx=0;entryDy=0;" parent="1" source="mBXEKz3svqvqHdSbfsig-115" target="mBXEKz3svqvqHdSbfsig-111" edge="1">
          <mxGeometry width="160" relative="1" as="geometry">
            <mxPoint x="1590" y="937" as="sourcePoint" />
            <mxPoint x="1693.8001672240803" y="985" as="targetPoint" />
          </mxGeometry>
        </mxCell>
        <mxCell id="mBXEKz3svqvqHdSbfsig-119" value="implements" style="edgeLabel;html=1;align=center;verticalAlign=middle;resizable=0;points=[];fontSize=12;" parent="mBXEKz3svqvqHdSbfsig-118" vertex="1" connectable="0">
          <mxGeometry x="-0.2289" y="1" relative="1" as="geometry">
            <mxPoint as="offset" />
          </mxGeometry>
        </mxCell>
        <mxCell id="mBXEKz3svqvqHdSbfsig-120" value="&lt;p style=&quot;margin:0px;margin-top:4px;text-align:center;&quot;&gt;&lt;i&gt;&amp;lt;&amp;lt;Abstract&amp;gt;&amp;gt;&lt;/i&gt;&lt;br&gt;&lt;b&gt;Race&lt;/b&gt;&lt;/p&gt;&lt;hr size=&quot;1&quot; style=&quot;border-style:solid;&quot;&gt;&lt;p style=&quot;margin:0px;margin-left:4px;&quot;&gt;+ raceName: String&lt;/p&gt;&lt;p style=&quot;margin:0px;margin-left:4px;&quot;&gt;+ strengthBonus: int&lt;/p&gt;&lt;p style=&quot;margin:0px;margin-left:4px;&quot;&gt;+ dexterityBonus: int&lt;/p&gt;&lt;p style=&quot;margin:0px;margin-left:4px;&quot;&gt;+ intelligenceBonus: int&lt;/p&gt;&lt;hr size=&quot;1&quot; style=&quot;border-style:solid;&quot;&gt;&lt;p style=&quot;margin:0px;margin-left:4px;&quot;&gt;+ Race(String raceName,&amp;nbsp;&lt;span style=&quot;background-color: transparent; color: light-dark(rgb(0, 0, 0), rgb(255, 255, 255));&quot;&gt;int strengthBonus, int dexterityBonus, String intelligenceBonus)&lt;/span&gt;&lt;/p&gt;&lt;p style=&quot;margin:0px;margin-left:4px;&quot;&gt;&lt;span style=&quot;background-color: transparent; color: light-dark(rgb(0, 0, 0), rgb(255, 255, 255));&quot;&gt;+ getRaceName(): String raceName&lt;/span&gt;&lt;/p&gt;&lt;p style=&quot;margin:0px;margin-left:4px;&quot;&gt;&lt;span style=&quot;background-color: transparent; color: light-dark(rgb(0, 0, 0), rgb(255, 255, 255));&quot;&gt;+ getStrengthBonus(): int strengthBonus&lt;/span&gt;&lt;/p&gt;&lt;p style=&quot;margin:0px;margin-left:4px;&quot;&gt;&lt;span style=&quot;background-color: transparent; color: light-dark(rgb(0, 0, 0), rgb(255, 255, 255));&quot;&gt;+ getDexterityBonus(): int dexterityBonus&lt;/span&gt;&lt;/p&gt;&lt;p style=&quot;margin:0px;margin-left:4px;&quot;&gt;&lt;span style=&quot;background-color: transparent; color: light-dark(rgb(0, 0, 0), rgb(255, 255, 255));&quot;&gt;+ getIntelligenceBonus(): int intelligenceBonus&lt;/span&gt;&lt;/p&gt;" style="verticalAlign=top;align=left;overflow=fill;html=1;whiteSpace=wrap;" parent="1" vertex="1">
          <mxGeometry x="1705" y="166" width="489" height="196.5" as="geometry" />
        </mxCell>
        <mxCell id="mBXEKz3svqvqHdSbfsig-123" value="&lt;p style=&quot;margin:0px;margin-top:4px;text-align:center;&quot;&gt;&lt;b&gt;RaceFactory&lt;/b&gt;&lt;/p&gt;&lt;hr size=&quot;1&quot; style=&quot;border-style:solid;&quot;&gt;&lt;p style=&quot;margin:0px;margin-left:4px;&quot;&gt;+ customRace: static final Map&amp;lt;String, Race&amp;gt;&lt;/p&gt;&lt;p style=&quot;margin:0px;margin-left:4px;&quot;&gt;+ raceCache: static final Map&amp;lt;String, Race&amp;gt;&lt;/p&gt;&lt;hr size=&quot;1&quot; style=&quot;border-style:solid;&quot;&gt;&lt;p style=&quot;margin:0px;margin-left:4px;&quot;&gt;+ createRace(String raceName): static Race&lt;/p&gt;&lt;p style=&quot;margin:0px;margin-left:4px;&quot;&gt;+ registerCustomRace(String name, int strengthBonus, int dexterityBonus, String intelligenceBonus): static void&lt;/p&gt;&lt;p style=&quot;margin:0px;margin-left:4px;&quot;&gt;+ registerCustomRaceWithDice(String name): static void&lt;/p&gt;&lt;p style=&quot;margin:0px;margin-left:4px;&quot;&gt;+ raceExists(String raceName): static boolean&lt;/p&gt;" style="verticalAlign=top;align=left;overflow=fill;html=1;whiteSpace=wrap;" parent="1" vertex="1">
          <mxGeometry x="1897" y="-62" width="614" height="164" as="geometry" />
        </mxCell>
        <mxCell id="mBXEKz3svqvqHdSbfsig-124" style="edgeStyle=none;curved=1;rounded=0;orthogonalLoop=1;jettySize=auto;html=1;entryX=0.771;entryY=-0.003;entryDx=0;entryDy=0;entryPerimeter=0;fontSize=12;startSize=8;endSize=8;" parent="1" source="mBXEKz3svqvqHdSbfsig-123" target="mBXEKz3svqvqHdSbfsig-120" edge="1">
          <mxGeometry relative="1" as="geometry" />
        </mxCell>
        <mxCell id="mBXEKz3svqvqHdSbfsig-125" value="creates" style="edgeLabel;html=1;align=center;verticalAlign=middle;resizable=0;points=[];fontSize=12;" parent="mBXEKz3svqvqHdSbfsig-124" vertex="1" connectable="0">
          <mxGeometry x="-0.1713" y="-3" relative="1" as="geometry">
            <mxPoint as="offset" />
          </mxGeometry>
        </mxCell>
        <mxCell id="mBXEKz3svqvqHdSbfsig-126" value="&lt;p style=&quot;margin:0px;margin-top:4px;text-align:center;&quot;&gt;&lt;b&gt;CustomJob&lt;/b&gt;&lt;/p&gt;&lt;hr size=&quot;1&quot; style=&quot;border-style:solid;&quot;&gt;&lt;p style=&quot;margin:0px;margin-left:4px;&quot;&gt;+ type: final String&lt;/p&gt;&lt;p style=&quot;margin:0px;margin-left:4px;&quot;&gt;+ ability: String&lt;/p&gt;&lt;hr size=&quot;1&quot; style=&quot;border-style:solid;&quot;&gt;&lt;p style=&quot;margin:0px;margin-left:4px;&quot;&gt;+&amp;nbsp;&lt;span style=&quot;background-color: transparent; color: light-dark(rgb(0, 0, 0), rgb(255, 255, 255));&quot;&gt;customJob(String name, int attackPower, int defense, String ability)&lt;/span&gt;&lt;/p&gt;&lt;p style=&quot;margin:0px;margin-left:4px;&quot;&gt;+ specialAbility(): void&lt;br&gt;&lt;/p&gt;" style="verticalAlign=top;align=left;overflow=fill;html=1;whiteSpace=wrap;" parent="1" vertex="1">
          <mxGeometry x="-329" y="800" width="416" height="111" as="geometry" />
        </mxCell>
        <mxCell id="mBXEKz3svqvqHdSbfsig-130" value="&lt;p style=&quot;margin:0px;margin-top:4px;text-align:center;&quot;&gt;&lt;b&gt;CustomRace&lt;/b&gt;&lt;/p&gt;&lt;hr size=&quot;1&quot; style=&quot;border-style:solid;&quot;&gt;&lt;p style=&quot;margin:0px;margin-left:4px;&quot;&gt;+ type: final String&lt;/p&gt;&lt;hr size=&quot;1&quot; style=&quot;border-style:solid;&quot;&gt;&lt;p style=&quot;margin:0px;margin-left:4px;&quot;&gt;+&amp;nbsp;&lt;span style=&quot;background-color: transparent; color: light-dark(rgb(0, 0, 0), rgb(255, 255, 255));&quot;&gt;c&lt;/span&gt;ustomRace(String name, int strengthBonus, int dexterityBonus, String intelligenceBonus)&lt;/p&gt;" style="verticalAlign=top;align=left;overflow=fill;html=1;whiteSpace=wrap;" parent="1" vertex="1">
          <mxGeometry x="1985" y="645" width="523" height="84" as="geometry" />
        </mxCell>
        <mxCell id="mBXEKz3svqvqHdSbfsig-135" value="&lt;p style=&quot;margin:0px;margin-top:4px;text-align:center;&quot;&gt;&lt;b&gt;Rogue&lt;/b&gt;&lt;/p&gt;&lt;hr size=&quot;1&quot; style=&quot;border-style:solid;&quot;&gt;&lt;p style=&quot;margin:0px;margin-left:4px;&quot;&gt;+ type: final String&lt;/p&gt;&lt;hr size=&quot;1&quot; style=&quot;border-style:solid;&quot;&gt;&lt;p style=&quot;margin:0px;margin-left:4px;&quot;&gt;+ Rogue()&lt;/p&gt;&lt;p style=&quot;margin:0px;margin-left:4px;&quot;&gt;+ specialAbility(): void&lt;/p&gt;" style="verticalAlign=top;align=left;overflow=fill;html=1;whiteSpace=wrap;" parent="1" vertex="1">
          <mxGeometry x="-583" y="354" width="160" height="90" as="geometry" />
        </mxCell>
        <mxCell id="mBXEKz3svqvqHdSbfsig-136" value="&lt;p style=&quot;margin:0px;margin-top:4px;text-align:center;&quot;&gt;&lt;b&gt;Cleric&lt;/b&gt;&lt;/p&gt;&lt;hr size=&quot;1&quot; style=&quot;border-style:solid;&quot;&gt;&lt;p style=&quot;margin:0px;margin-left:4px;&quot;&gt;+ type: final String&lt;/p&gt;&lt;hr size=&quot;1&quot; style=&quot;border-style:solid;&quot;&gt;&lt;p style=&quot;margin: 0px 0px 0px 4px;&quot;&gt;+ Cleric()&lt;/p&gt;&lt;p style=&quot;margin: 0px 0px 0px 4px;&quot;&gt;+ specialAbility(): void&lt;/p&gt;" style="verticalAlign=top;align=left;overflow=fill;html=1;whiteSpace=wrap;" parent="1" vertex="1">
          <mxGeometry x="-581" y="510" width="160" height="90" as="geometry" />
        </mxCell>
        <mxCell id="mBXEKz3svqvqHdSbfsig-141" value="&lt;p style=&quot;margin:0px;margin-top:4px;text-align:center;&quot;&gt;&lt;b&gt;Fighter&lt;/b&gt;&lt;/p&gt;&lt;hr size=&quot;1&quot; style=&quot;border-style:solid;&quot;&gt;&lt;p style=&quot;margin:0px;margin-left:4px;&quot;&gt;+ type: final String&lt;/p&gt;&lt;hr size=&quot;1&quot; style=&quot;border-style:solid;&quot;&gt;&lt;p style=&quot;margin: 0px 0px 0px 4px;&quot;&gt;+ Fighter()&lt;/p&gt;&lt;p style=&quot;margin: 0px 0px 0px 4px;&quot;&gt;+ specialAbility(): void&lt;/p&gt;" style="verticalAlign=top;align=left;overflow=fill;html=1;whiteSpace=wrap;" parent="1" vertex="1">
          <mxGeometry x="-577" y="723" width="160" height="90" as="geometry" />
        </mxCell>
        <mxCell id="mBXEKz3svqvqHdSbfsig-144" value="&lt;p style=&quot;margin:0px;margin-top:4px;text-align:center;&quot;&gt;&lt;b&gt;Wizard&lt;/b&gt;&lt;/p&gt;&lt;hr size=&quot;1&quot; style=&quot;border-style:solid;&quot;&gt;&lt;p style=&quot;margin:0px;margin-left:4px;&quot;&gt;+ type: final String&lt;/p&gt;&lt;hr size=&quot;1&quot; style=&quot;border-style:solid;&quot;&gt;&lt;p style=&quot;margin: 0px 0px 0px 4px;&quot;&gt;+ Wizard()&lt;/p&gt;&lt;p style=&quot;margin: 0px 0px 0px 4px;&quot;&gt;+ specialAbility(): void&lt;/p&gt;" style="verticalAlign=top;align=left;overflow=fill;html=1;whiteSpace=wrap;" parent="1" vertex="1">
          <mxGeometry x="135" y="809" width="160" height="90" as="geometry" />
        </mxCell>
        <mxCell id="mBXEKz3svqvqHdSbfsig-147" value="Extends" style="endArrow=block;endSize=16;endFill=0;html=1;rounded=0;fontSize=12;curved=1;exitX=0.575;exitY=-0.011;exitDx=0;exitDy=0;exitPerimeter=0;entryX=0;entryY=1;entryDx=0;entryDy=0;" parent="1" source="mBXEKz3svqvqHdSbfsig-89" target="mBXEKz3svqvqHdSbfsig-62" edge="1">
          <mxGeometry width="160" relative="1" as="geometry">
            <mxPoint x="455" y="370" as="sourcePoint" />
            <mxPoint x="615" y="370" as="targetPoint" />
          </mxGeometry>
        </mxCell>
        <mxCell id="mBXEKz3svqvqHdSbfsig-148" value="Extends" style="endArrow=block;endSize=16;endFill=0;html=1;rounded=0;fontSize=12;curved=1;exitX=1;exitY=0.578;exitDx=0;exitDy=0;exitPerimeter=0;entryX=0.003;entryY=0.213;entryDx=0;entryDy=0;entryPerimeter=0;" parent="1" source="mBXEKz3svqvqHdSbfsig-135" target="mBXEKz3svqvqHdSbfsig-82" edge="1">
          <mxGeometry width="160" relative="1" as="geometry">
            <mxPoint x="-239" y="506" as="sourcePoint" />
            <mxPoint x="-79" y="506" as="targetPoint" />
          </mxGeometry>
        </mxCell>
        <mxCell id="mBXEKz3svqvqHdSbfsig-149" value="Extends" style="endArrow=block;endSize=16;endFill=0;html=1;rounded=0;fontSize=12;curved=1;exitX=1;exitY=0.5;exitDx=0;exitDy=0;entryX=0.006;entryY=0.472;entryDx=0;entryDy=0;entryPerimeter=0;" parent="1" source="mBXEKz3svqvqHdSbfsig-136" target="mBXEKz3svqvqHdSbfsig-82" edge="1">
          <mxGeometry width="160" relative="1" as="geometry">
            <mxPoint x="-239" y="506" as="sourcePoint" />
            <mxPoint x="-79" y="506" as="targetPoint" />
          </mxGeometry>
        </mxCell>
        <mxCell id="mBXEKz3svqvqHdSbfsig-150" value="Extends" style="endArrow=block;endSize=16;endFill=0;html=1;rounded=0;fontSize=12;curved=1;exitX=0.875;exitY=0.044;exitDx=0;exitDy=0;exitPerimeter=0;entryX=0;entryY=1;entryDx=0;entryDy=0;" parent="1" source="mBXEKz3svqvqHdSbfsig-141" target="mBXEKz3svqvqHdSbfsig-82" edge="1">
          <mxGeometry width="160" relative="1" as="geometry">
            <mxPoint x="-239" y="506" as="sourcePoint" />
            <mxPoint x="-79" y="506" as="targetPoint" />
          </mxGeometry>
        </mxCell>
        <mxCell id="mBXEKz3svqvqHdSbfsig-151" value="Extends" style="endArrow=block;endSize=16;endFill=0;html=1;rounded=0;fontSize=12;curved=1;entryX=0.143;entryY=1.015;entryDx=0;entryDy=0;entryPerimeter=0;" parent="1" source="mBXEKz3svqvqHdSbfsig-126" target="mBXEKz3svqvqHdSbfsig-82" edge="1">
          <mxGeometry width="160" relative="1" as="geometry">
            <mxPoint x="-123" y="505" as="sourcePoint" />
            <mxPoint x="37" y="505" as="targetPoint" />
          </mxGeometry>
        </mxCell>
        <mxCell id="mBXEKz3svqvqHdSbfsig-152" value="Extends" style="endArrow=block;endSize=16;endFill=0;html=1;rounded=0;fontSize=12;curved=1;exitX=0.25;exitY=0;exitDx=0;exitDy=0;entryX=0.404;entryY=1.005;entryDx=0;entryDy=0;entryPerimeter=0;" parent="1" source="mBXEKz3svqvqHdSbfsig-144" target="mBXEKz3svqvqHdSbfsig-82" edge="1">
          <mxGeometry width="160" relative="1" as="geometry">
            <mxPoint x="305" y="505" as="sourcePoint" />
            <mxPoint x="465" y="505" as="targetPoint" />
          </mxGeometry>
        </mxCell>
        <mxCell id="mBXEKz3svqvqHdSbfsig-153" value="Extends" style="endArrow=block;endSize=16;endFill=0;html=1;rounded=0;fontSize=12;curved=1;exitX=0.176;exitY=0.012;exitDx=0;exitDy=0;exitPerimeter=0;entryX=0.75;entryY=1;entryDx=0;entryDy=0;" parent="1" source="mBXEKz3svqvqHdSbfsig-130" target="mBXEKz3svqvqHdSbfsig-120" edge="1">
          <mxGeometry x="-0.0059" width="160" relative="1" as="geometry">
            <mxPoint x="1345" y="468" as="sourcePoint" />
            <mxPoint x="1505" y="468" as="targetPoint" />
            <mxPoint as="offset" />
          </mxGeometry>
        </mxCell>
        <mxCell id="mBXEKz3svqvqHdSbfsig-154" value="&lt;p style=&quot;margin:0px;margin-top:4px;text-align:center;&quot;&gt;&lt;b&gt;Dwarf&lt;/b&gt;&lt;/p&gt;&lt;hr size=&quot;1&quot; style=&quot;border-style:solid;&quot;&gt;&lt;p style=&quot;margin:0px;margin-left:4px;&quot;&gt;+ type: final String&lt;/p&gt;&lt;hr size=&quot;1&quot; style=&quot;border-style:solid;&quot;&gt;&lt;p style=&quot;margin:0px;margin-left:4px;&quot;&gt;+ Dwarf()&lt;/p&gt;" style="verticalAlign=top;align=left;overflow=fill;html=1;whiteSpace=wrap;" parent="1" vertex="1">
          <mxGeometry x="2302" y="134" width="160" height="90" as="geometry" />
        </mxCell>
        <mxCell id="mBXEKz3svqvqHdSbfsig-155" value="Extends" style="endArrow=block;endSize=16;endFill=0;html=1;rounded=0;fontSize=12;curved=1;exitX=0;exitY=0.25;exitDx=0;exitDy=0;entryX=1;entryY=0;entryDx=0;entryDy=0;" parent="1" source="mBXEKz3svqvqHdSbfsig-154" target="mBXEKz3svqvqHdSbfsig-120" edge="1">
          <mxGeometry width="160" relative="1" as="geometry">
            <mxPoint x="1754" y="417" as="sourcePoint" />
            <mxPoint x="1914" y="417" as="targetPoint" />
          </mxGeometry>
        </mxCell>
        <mxCell id="mBXEKz3svqvqHdSbfsig-156" value="&lt;p style=&quot;margin:0px;margin-top:4px;text-align:center;&quot;&gt;&lt;b&gt;Elf&lt;/b&gt;&lt;/p&gt;&lt;hr size=&quot;1&quot; style=&quot;border-style:solid;&quot;&gt;&lt;p style=&quot;margin:0px;margin-left:4px;&quot;&gt;+ type: final String&lt;/p&gt;&lt;hr size=&quot;1&quot; style=&quot;border-style:solid;&quot;&gt;&lt;p style=&quot;margin:0px;margin-left:4px;&quot;&gt;+ Elf()&lt;/p&gt;" style="verticalAlign=top;align=left;overflow=fill;html=1;whiteSpace=wrap;" parent="1" vertex="1">
          <mxGeometry x="2366" y="247" width="160" height="90" as="geometry" />
        </mxCell>
        <mxCell id="mBXEKz3svqvqHdSbfsig-157" value="Extends" style="endArrow=block;endSize=16;endFill=0;html=1;rounded=0;fontSize=12;curved=1;exitX=0;exitY=0.25;exitDx=0;exitDy=0;entryX=1;entryY=0.43;entryDx=0;entryDy=0;entryPerimeter=0;" parent="1" source="mBXEKz3svqvqHdSbfsig-156" target="mBXEKz3svqvqHdSbfsig-120" edge="1">
          <mxGeometry width="160" relative="1" as="geometry">
            <mxPoint x="1998" y="417" as="sourcePoint" />
            <mxPoint x="2158" y="417" as="targetPoint" />
          </mxGeometry>
        </mxCell>
        <mxCell id="mBXEKz3svqvqHdSbfsig-158" value="&lt;p style=&quot;margin:0px;margin-top:4px;text-align:center;&quot;&gt;&lt;b&gt;Human&lt;/b&gt;&lt;/p&gt;&lt;hr size=&quot;1&quot; style=&quot;border-style:solid;&quot;&gt;&lt;p style=&quot;margin:0px;margin-left:4px;&quot;&gt;+ type: final String&lt;/p&gt;&lt;hr size=&quot;1&quot; style=&quot;border-style:solid;&quot;&gt;&lt;p style=&quot;margin:0px;margin-left:4px;&quot;&gt;+ Human()&lt;/p&gt;" style="verticalAlign=top;align=left;overflow=fill;html=1;whiteSpace=wrap;" parent="1" vertex="1">
          <mxGeometry x="2373" y="383" width="160" height="90" as="geometry" />
        </mxCell>
        <mxCell id="mBXEKz3svqvqHdSbfsig-159" value="Extends" style="endArrow=block;endSize=16;endFill=0;html=1;rounded=0;fontSize=12;curved=1;exitX=0;exitY=0.389;exitDx=0;exitDy=0;exitPerimeter=0;entryX=1.002;entryY=0.832;entryDx=0;entryDy=0;entryPerimeter=0;" parent="1" source="mBXEKz3svqvqHdSbfsig-158" target="mBXEKz3svqvqHdSbfsig-120" edge="1">
          <mxGeometry width="160" relative="1" as="geometry">
            <mxPoint x="1998" y="417" as="sourcePoint" />
            <mxPoint x="2158" y="417" as="targetPoint" />
          </mxGeometry>
        </mxCell>
        <mxCell id="mBXEKz3svqvqHdSbfsig-160" value="&lt;p style=&quot;margin:0px;margin-top:4px;text-align:center;&quot;&gt;&lt;b&gt;Orc&lt;/b&gt;&lt;/p&gt;&lt;hr size=&quot;1&quot; style=&quot;border-style:solid;&quot;&gt;&lt;p style=&quot;margin:0px;margin-left:4px;&quot;&gt;+ type: final String&lt;/p&gt;&lt;hr size=&quot;1&quot; style=&quot;border-style:solid;&quot;&gt;&lt;p style=&quot;margin:0px;margin-left:4px;&quot;&gt;+ Orc()&lt;/p&gt;" style="verticalAlign=top;align=left;overflow=fill;html=1;whiteSpace=wrap;" parent="1" vertex="1">
          <mxGeometry x="2375" y="523" width="160" height="90" as="geometry" />
        </mxCell>
        <mxCell id="mBXEKz3svqvqHdSbfsig-161" value="Extends" style="endArrow=block;endSize=16;endFill=0;html=1;rounded=0;fontSize=12;curved=1;exitX=0.175;exitY=0.011;exitDx=0;exitDy=0;exitPerimeter=0;entryX=1;entryY=0.959;entryDx=0;entryDy=0;entryPerimeter=0;" parent="1" source="mBXEKz3svqvqHdSbfsig-160" target="mBXEKz3svqvqHdSbfsig-120" edge="1">
          <mxGeometry width="160" relative="1" as="geometry">
            <mxPoint x="1998" y="417" as="sourcePoint" />
            <mxPoint x="2158" y="417" as="targetPoint" />
          </mxGeometry>
        </mxCell>
        <mxCell id="mBXEKz3svqvqHdSbfsig-163" value="command" style="text;html=1;align=center;verticalAlign=middle;resizable=0;points=[];autosize=1;strokeColor=none;fillColor=none;fontSize=16;" parent="1" vertex="1">
          <mxGeometry x="-271" y="-600" width="88" height="31" as="geometry" />
        </mxCell>
        <mxCell id="mBXEKz3svqvqHdSbfsig-165" value="job" style="text;html=1;align=center;verticalAlign=middle;resizable=0;points=[];autosize=1;strokeColor=none;fillColor=none;fontSize=16;" parent="1" vertex="1">
          <mxGeometry x="-635" y="-11" width="39" height="31" as="geometry" />
        </mxCell>
        <mxCell id="mBXEKz3svqvqHdSbfsig-167" value="race" style="text;html=1;align=center;verticalAlign=middle;resizable=0;points=[];autosize=1;strokeColor=none;fillColor=none;fontSize=16;" parent="1" vertex="1">
          <mxGeometry x="1712" y="-341" width="49" height="31" as="geometry" />
        </mxCell>
        <mxCell id="mBXEKz3svqvqHdSbfsig-169" value="dice" style="text;html=1;align=center;verticalAlign=middle;resizable=0;points=[];autosize=1;strokeColor=none;fillColor=none;fontSize=16;" parent="1" vertex="1">
          <mxGeometry x="1665" y="806" width="47" height="31" as="geometry" />
        </mxCell>
        <mxCell id="mBXEKz3svqvqHdSbfsig-171" value="observer" style="text;html=1;align=center;verticalAlign=middle;resizable=0;points=[];autosize=1;strokeColor=none;fillColor=none;fontSize=16;" parent="1" vertex="1">
          <mxGeometry x="1391" y="-431" width="80" height="31" as="geometry" />
        </mxCell>
        <mxCell id="mBXEKz3svqvqHdSbfsig-173" value="character" style="text;html=1;align=center;verticalAlign=middle;resizable=0;points=[];autosize=1;strokeColor=none;fillColor=none;fontSize=16;" parent="1" vertex="1">
          <mxGeometry x="363" y="-75" width="85" height="31" as="geometry" />
        </mxCell>
        <mxCell id="mBXEKz3svqvqHdSbfsig-175" value="main" style="text;html=1;align=center;verticalAlign=middle;resizable=0;points=[];autosize=1;strokeColor=none;fillColor=none;fontSize=16;" parent="1" vertex="1">
          <mxGeometry x="-685" y="-708" width="53" height="31" as="geometry" />
        </mxCell>
        <mxCell id="mBXEKz3svqvqHdSbfsig-176" value="&lt;p style=&quot;margin:0px;margin-top:4px;text-align:center;&quot;&gt;&lt;b&gt;Main&lt;/b&gt;&lt;/p&gt;&lt;hr size=&quot;1&quot; style=&quot;border-style:solid;&quot;&gt;&lt;p style=&quot;margin:0px;margin-left:4px;&quot;&gt;&lt;br&gt;&lt;/p&gt;&lt;hr size=&quot;1&quot; style=&quot;border-style:solid;&quot;&gt;&lt;p style=&quot;margin:0px;margin-left:4px;&quot;&gt;+ main(String[] args): static void&lt;/p&gt;" style="verticalAlign=top;align=left;overflow=fill;html=1;whiteSpace=wrap;" parent="1" vertex="1">
          <mxGeometry x="1456" y="-26" width="198" height="90" as="geometry" />
        </mxCell>
        <mxCell id="mBXEKz3svqvqHdSbfsig-181" style="edgeStyle=none;curved=1;rounded=0;orthogonalLoop=1;jettySize=auto;html=1;entryX=0.988;entryY=0.375;entryDx=0;entryDy=0;entryPerimeter=0;fontSize=12;startSize=8;endSize=8;" parent="1" source="mBXEKz3svqvqHdSbfsig-176" target="mBXEKz3svqvqHdSbfsig-70" edge="1">
          <mxGeometry relative="1" as="geometry" />
        </mxCell>
        <mxCell id="mBXEKz3svqvqHdSbfsig-182" value="creates and interacts with" style="edgeLabel;html=1;align=center;verticalAlign=middle;resizable=0;points=[];fontSize=12;" parent="mBXEKz3svqvqHdSbfsig-181" vertex="1" connectable="0">
          <mxGeometry x="0.1908" y="1" relative="1" as="geometry">
            <mxPoint x="52" y="-19" as="offset" />
          </mxGeometry>
        </mxCell>
        <mxCell id="4VRerpqA-6s90hHGSyJA-1" value="io" style="shape=folder;fontStyle=1;spacingTop=10;tabWidth=40;tabHeight=14;tabPosition=left;html=1;whiteSpace=wrap;" vertex="1" parent="1">
          <mxGeometry x="-163" y="-1.5" width="413" height="155.5" as="geometry" />
        </mxCell>
        <mxCell id="4VRerpqA-6s90hHGSyJA-2" value="&lt;p style=&quot;margin:0px;margin-top:4px;text-align:center;&quot;&gt;&lt;b&gt;JobFileIO&lt;/b&gt;&lt;/p&gt;&lt;hr size=&quot;1&quot; style=&quot;border-style:solid;&quot;&gt;&lt;p style=&quot;margin:0px;margin-left:4px;&quot;&gt;+ JOB_DIR: static final String&lt;/p&gt;&lt;p style=&quot;margin:0px;margin-left:4px;&quot;&gt;+ gson: static final Gson&lt;/p&gt;&lt;hr size=&quot;1&quot; style=&quot;border-style:solid;&quot;&gt;&lt;p style=&quot;margin:0px;margin-left:4px;&quot;&gt;+ save(Job job) static void&lt;/p&gt;&lt;p style=&quot;margin:0px;margin-left:4px;&quot;&gt;+ loadAll(): static Map&amp;lt;String, Job&amp;gt;&lt;/p&gt;&lt;p style=&quot;margin:0px;margin-left:4px;&quot;&gt;+ load(String jobName): static Job&lt;/p&gt;" style="verticalAlign=top;align=left;overflow=fill;html=1;whiteSpace=wrap;" vertex="1" parent="1">
          <mxGeometry x="-88" y="20" width="317" height="126" as="geometry" />
        </mxCell>
        <mxCell id="4VRerpqA-6s90hHGSyJA-4" value="io" style="shape=folder;fontStyle=1;spacingTop=10;tabWidth=40;tabHeight=14;tabPosition=left;html=1;whiteSpace=wrap;" vertex="1" parent="1">
          <mxGeometry x="2073" y="-316" width="493" height="240" as="geometry" />
        </mxCell>
        <mxCell id="4VRerpqA-6s90hHGSyJA-5" value="&lt;p style=&quot;margin:0px;margin-top:4px;text-align:center;&quot;&gt;&lt;b&gt;RaceFileIO&lt;/b&gt;&lt;/p&gt;&lt;hr size=&quot;1&quot; style=&quot;border-style:solid;&quot;&gt;&lt;p style=&quot;margin:0px;margin-left:4px;&quot;&gt;+ RACE_DIR: static final String&lt;/p&gt;&lt;p style=&quot;margin:0px;margin-left:4px;&quot;&gt;+ gson: static final Gson&lt;/p&gt;&lt;hr size=&quot;1&quot; style=&quot;border-style:solid;&quot;&gt;&lt;p style=&quot;margin:0px;margin-left:4px;&quot;&gt;+ save(Race race): static void&lt;/p&gt;&lt;p style=&quot;margin:0px;margin-left:4px;&quot;&gt;+ loadAll(): static Map&amp;lt;String, Race&amp;gt;&lt;/p&gt;&lt;p style=&quot;margin:0px;margin-left:4px;&quot;&gt;+ loadRace(String raceName): static Race&lt;/p&gt;" style="verticalAlign=top;align=left;overflow=fill;html=1;whiteSpace=wrap;" vertex="1" parent="1">
          <mxGeometry x="2126" y="-276.5" width="326" height="151.5" as="geometry" />
        </mxCell>
        <mxCell id="4VRerpqA-6s90hHGSyJA-6" value="package" style="shape=folder;fontStyle=1;spacingTop=10;tabWidth=40;tabHeight=14;tabPosition=left;html=1;whiteSpace=wrap;" vertex="1" parent="1">
          <mxGeometry x="411" y="716" width="833" height="299" as="geometry" />
        </mxCell>
        <mxCell id="4VRerpqA-6s90hHGSyJA-7" value="io" style="text;html=1;align=center;verticalAlign=middle;resizable=0;points=[];autosize=1;strokeColor=none;fillColor=none;" vertex="1" parent="1">
          <mxGeometry x="448" y="741" width="27" height="26" as="geometry" />
        </mxCell>
        <mxCell id="4VRerpqA-6s90hHGSyJA-8" value="io" style="text;html=1;align=center;verticalAlign=middle;resizable=0;points=[];autosize=1;strokeColor=none;fillColor=none;" vertex="1" parent="1">
          <mxGeometry x="2082" y="-300" width="27" height="26" as="geometry" />
        </mxCell>
        <mxCell id="4VRerpqA-6s90hHGSyJA-9" value="io" style="text;html=1;align=center;verticalAlign=middle;resizable=0;points=[];autosize=1;strokeColor=none;fillColor=none;" vertex="1" parent="1">
          <mxGeometry x="-142" y="16" width="27" height="26" as="geometry" />
        </mxCell>
        <mxCell id="4VRerpqA-6s90hHGSyJA-10" style="rounded=0;orthogonalLoop=1;jettySize=auto;html=1;entryX=0.135;entryY=0.974;entryDx=0;entryDy=0;entryPerimeter=0;" edge="1" parent="1" source="mBXEKz3svqvqHdSbfsig-81" target="4VRerpqA-6s90hHGSyJA-2">
          <mxGeometry relative="1" as="geometry" />
        </mxCell>
        <mxCell id="4VRerpqA-6s90hHGSyJA-11" value="uses" style="edgeLabel;html=1;align=center;verticalAlign=middle;resizable=0;points=[];" vertex="1" connectable="0" parent="4VRerpqA-6s90hHGSyJA-10">
          <mxGeometry x="-0.0219" y="-2" relative="1" as="geometry">
            <mxPoint x="1" as="offset" />
          </mxGeometry>
        </mxCell>
        <mxCell id="4VRerpqA-6s90hHGSyJA-12" style="rounded=0;orthogonalLoop=1;jettySize=auto;html=1;entryX=0.5;entryY=1;entryDx=0;entryDy=0;" edge="1" parent="1" source="mBXEKz3svqvqHdSbfsig-123" target="4VRerpqA-6s90hHGSyJA-5">
          <mxGeometry relative="1" as="geometry" />
        </mxCell>
        <mxCell id="4VRerpqA-6s90hHGSyJA-13" value="uses" style="edgeLabel;html=1;align=center;verticalAlign=middle;resizable=0;points=[];" vertex="1" connectable="0" parent="4VRerpqA-6s90hHGSyJA-12">
          <mxGeometry x="-0.1152" relative="1" as="geometry">
            <mxPoint as="offset" />
          </mxGeometry>
        </mxCell>
        <mxCell id="4VRerpqA-6s90hHGSyJA-25" style="edgeStyle=orthogonalEdgeStyle;rounded=0;orthogonalLoop=1;jettySize=auto;html=1;curved=1;exitX=1;exitY=0.5;exitDx=0;exitDy=0;entryX=0.823;entryY=0.995;entryDx=0;entryDy=0;entryPerimeter=0;" edge="1" parent="1" source="4VRerpqA-6s90hHGSyJA-17" target="mBXEKz3svqvqHdSbfsig-62">
          <mxGeometry relative="1" as="geometry">
            <mxPoint x="712" y="431.6666259765625" as="targetPoint" />
            <Array as="points">
              <mxPoint x="736" y="859" />
              <mxPoint x="736" y="902" />
              <mxPoint x="829" y="902" />
              <mxPoint x="829" y="906" />
              <mxPoint x="1274" y="906" />
              <mxPoint x="1274" y="448" />
              <mxPoint x="809" y="448" />
            </Array>
          </mxGeometry>
        </mxCell>
        <mxCell id="4VRerpqA-6s90hHGSyJA-17" value="&lt;p style=&quot;margin:0px;margin-top:4px;text-align:center;&quot;&gt;&lt;b&gt;CharacterCacheIO&lt;/b&gt;&lt;/p&gt;&lt;hr size=&quot;1&quot; style=&quot;border-style:solid;&quot;&gt;&lt;p style=&quot;margin:0px;margin-left:4px;&quot;&gt;+ CHARACTER_DIR: String&lt;/p&gt;&lt;p style=&quot;margin:0px;margin-left:4px;&quot;&gt;+ gson: Gson&lt;/p&gt;&lt;hr size=&quot;1&quot; style=&quot;border-style:solid;&quot;&gt;&lt;p style=&quot;margin:0px;margin-left:4px;&quot;&gt;+ loadCache(): static Map&amp;lt;String, GameCharacter&amp;gt;&lt;/p&gt;&lt;p style=&quot;margin:0px;margin-left:4px;&quot;&gt;+ saveCharacter(String name, GameCharacter character): static void&lt;/p&gt;&lt;p style=&quot;margin:0px;margin-left:4px;&quot;&gt;+ saveCache(Map&amp;lt;String, GameCharacter&amp;gt; cache): static void&lt;/p&gt;" style="verticalAlign=top;align=left;overflow=fill;html=1;whiteSpace=wrap;" vertex="1" parent="1">
          <mxGeometry x="423" y="779" width="375" height="160" as="geometry" />
        </mxCell>
        <mxCell id="4VRerpqA-6s90hHGSyJA-21" style="edgeStyle=orthogonalEdgeStyle;rounded=0;orthogonalLoop=1;jettySize=auto;html=1;curved=1;entryX=0.825;entryY=0.995;entryDx=0;entryDy=0;entryPerimeter=0;" edge="1" parent="1" source="4VRerpqA-6s90hHGSyJA-18" target="mBXEKz3svqvqHdSbfsig-62">
          <mxGeometry relative="1" as="geometry">
            <mxPoint x="711" y="421" as="targetPoint" />
            <Array as="points">
              <mxPoint x="1263" y="811" />
              <mxPoint x="1263" y="449" />
              <mxPoint x="810" y="449" />
            </Array>
          </mxGeometry>
        </mxCell>
        <mxCell id="4VRerpqA-6s90hHGSyJA-22" value="loads/&lt;div&gt;saves&lt;/div&gt;" style="edgeLabel;html=1;align=center;verticalAlign=middle;resizable=0;points=[];" vertex="1" connectable="0" parent="4VRerpqA-6s90hHGSyJA-21">
          <mxGeometry x="-0.4018" y="-2" relative="1" as="geometry">
            <mxPoint x="-308" y="-174" as="offset" />
          </mxGeometry>
        </mxCell>
        <mxCell id="4VRerpqA-6s90hHGSyJA-18" value="&lt;p style=&quot;margin:0px;margin-top:4px;text-align:center;&quot;&gt;&lt;b&gt;CharacterFileIO&lt;/b&gt;&lt;/p&gt;&lt;hr size=&quot;1&quot; style=&quot;border-style:solid;&quot;&gt;&lt;p style=&quot;margin:0px;margin-left:4px;&quot;&gt;+ CHAR_FOLDER: String&lt;/p&gt;&lt;p style=&quot;margin:0px;margin-left:4px;&quot;&gt;+ gson: Gson&lt;/p&gt;&lt;hr size=&quot;1&quot; style=&quot;border-style:solid;&quot;&gt;&lt;p style=&quot;margin:0px;margin-left:4px;&quot;&gt;+ save(GameCharacter character): static void&lt;/p&gt;&lt;p style=&quot;margin:0px;margin-left:4px;&quot;&gt;+ load(String name): static GameCharacter&lt;/p&gt;" style="verticalAlign=top;align=left;overflow=fill;html=1;whiteSpace=wrap;" vertex="1" parent="1">
          <mxGeometry x="827" y="747" width="344" height="128" as="geometry" />
        </mxCell>
        <mxCell id="4VRerpqA-6s90hHGSyJA-20" value="&lt;p style=&quot;margin:0px;margin-top:4px;text-align:center;&quot;&gt;&lt;b&gt;CharacterCache&lt;/b&gt;&lt;/p&gt;&lt;hr size=&quot;1&quot; style=&quot;border-style:solid;&quot;&gt;&lt;p style=&quot;margin:0px;margin-left:4px;&quot;&gt;+ cache: static Map&amp;lt;String, GameCharacter&amp;gt;&lt;/p&gt;&lt;hr size=&quot;1&quot; style=&quot;border-style:solid;&quot;&gt;&lt;p style=&quot;margin:0px;margin-left:4px;&quot;&gt;+ loadFromFile(): static void&lt;/p&gt;&lt;p style=&quot;margin:0px;margin-left:4px;&quot;&gt;+ saveToFile(): static void&lt;/p&gt;&lt;p style=&quot;margin:0px;margin-left:4px;&quot;&gt;+ put(String name, GameCharacter character): static void&lt;/p&gt;&lt;p style=&quot;margin:0px;margin-left:4px;&quot;&gt;+ get(String name): static GameCharacter&lt;/p&gt;&lt;p style=&quot;margin:0px;margin-left:4px;&quot;&gt;+ exists(String name): static boolean&lt;/p&gt;" style="verticalAlign=top;align=left;overflow=fill;html=1;whiteSpace=wrap;" vertex="1" parent="1">
          <mxGeometry x="966" y="1027" width="335" height="137" as="geometry" />
        </mxCell>
        <mxCell id="4VRerpqA-6s90hHGSyJA-23" style="edgeStyle=orthogonalEdgeStyle;rounded=0;orthogonalLoop=1;jettySize=auto;html=1;entryX=0.67;entryY=1.004;entryDx=0;entryDy=0;curved=1;entryPerimeter=0;" edge="1" parent="1" target="4VRerpqA-6s90hHGSyJA-17">
          <mxGeometry relative="1" as="geometry">
            <mxPoint x="967" y="1089" as="sourcePoint" />
            <Array as="points">
              <mxPoint x="967" y="1076" />
              <mxPoint x="709" y="1076" />
              <mxPoint x="709" y="940" />
            </Array>
          </mxGeometry>
        </mxCell>
        <mxCell id="4VRerpqA-6s90hHGSyJA-24" value="IO Layer" style="edgeLabel;html=1;align=center;verticalAlign=middle;resizable=0;points=[];" vertex="1" connectable="0" parent="4VRerpqA-6s90hHGSyJA-23">
          <mxGeometry x="-0.2646" y="-1" relative="1" as="geometry">
            <mxPoint as="offset" />
          </mxGeometry>
        </mxCell>
        <mxCell id="4VRerpqA-6s90hHGSyJA-28" value="package" style="shape=folder;fontStyle=1;spacingTop=10;tabWidth=40;tabHeight=14;tabPosition=left;html=1;whiteSpace=wrap;" vertex="1" parent="1">
          <mxGeometry x="281" y="1309" width="1158" height="394" as="geometry" />
        </mxCell>
        <mxCell id="4VRerpqA-6s90hHGSyJA-29" value="util" style="text;html=1;align=center;verticalAlign=middle;resizable=0;points=[];autosize=1;strokeColor=none;fillColor=none;" vertex="1" parent="1">
          <mxGeometry x="293" y="1326" width="33" height="26" as="geometry" />
        </mxCell>
        <mxCell id="4VRerpqA-6s90hHGSyJA-35" style="edgeStyle=orthogonalEdgeStyle;rounded=0;orthogonalLoop=1;jettySize=auto;html=1;entryX=0.828;entryY=0.014;entryDx=0;entryDy=0;entryPerimeter=0;exitX=0.186;exitY=0.012;exitDx=0;exitDy=0;exitPerimeter=0;" edge="1" parent="1" source="4VRerpqA-6s90hHGSyJA-30" target="mBXEKz3svqvqHdSbfsig-82">
          <mxGeometry relative="1" as="geometry">
            <Array as="points">
              <mxPoint x="397" y="1265" />
              <mxPoint x="317" y="1265" />
              <mxPoint x="317" y="382" />
              <mxPoint x="233" y="382" />
            </Array>
          </mxGeometry>
        </mxCell>
        <mxCell id="4VRerpqA-6s90hHGSyJA-37" value="support serialization for" style="edgeLabel;html=1;align=center;verticalAlign=middle;resizable=0;points=[];" vertex="1" connectable="0" parent="4VRerpqA-6s90hHGSyJA-35">
          <mxGeometry x="-0.7279" y="-4" relative="1" as="geometry">
            <mxPoint x="30" y="6" as="offset" />
          </mxGeometry>
        </mxCell>
        <mxCell id="4VRerpqA-6s90hHGSyJA-30" value="&lt;p style=&quot;margin:0px;margin-top:4px;text-align:center;&quot;&gt;&lt;b&gt;TypeAdapterUtil&lt;/b&gt;&lt;/p&gt;&lt;hr size=&quot;1&quot; style=&quot;border-style:solid;&quot;&gt;&lt;p style=&quot;margin:0px;margin-left:4px;&quot;&gt;&lt;br&gt;&lt;/p&gt;&lt;hr size=&quot;1&quot; style=&quot;border-style:solid;&quot;&gt;&lt;p style=&quot;margin:0px;margin-left:4px;&quot;&gt;+ raceAdapter(): static RuntimeTypeAdapterFactory&amp;lt;Race&amp;gt;&lt;/p&gt;&lt;p style=&quot;margin:0px;margin-left:4px;&quot;&gt;+ jobAdapter(): static RuntimeTypeAdapterFactory&amp;lt;Job&amp;gt;&lt;/p&gt;&lt;p style=&quot;margin:0px;margin-left:4px;&quot;&gt;+ characterAdapter(): static RuntimeTypeAdapterFactory&amp;lt;GameCharacter&amp;gt;&lt;/p&gt;" style="verticalAlign=top;align=left;overflow=fill;html=1;whiteSpace=wrap;" vertex="1" parent="1">
          <mxGeometry x="321" y="1371" width="406" height="139" as="geometry" />
        </mxCell>
        <mxCell id="4VRerpqA-6s90hHGSyJA-31" value="&lt;p style=&quot;margin:0px;margin-top:4px;text-align:center;&quot;&gt;&lt;b&gt;RuntimeTypeAdapterFactory&lt;/b&gt;&lt;/p&gt;&lt;hr size=&quot;1&quot; style=&quot;border-style:solid;&quot;&gt;&lt;p style=&quot;margin:0px;margin-left:4px;&quot;&gt;+ baseType: final Class&amp;lt;?&amp;gt;&lt;/p&gt;&lt;p style=&quot;margin:0px;margin-left:4px;&quot;&gt;+ typeFieldName: final String&lt;/p&gt;&lt;p style=&quot;margin:0px;margin-left:4px;&quot;&gt;+ maintainType: final boolean&lt;/p&gt;&lt;p style=&quot;margin:0px;margin-left:4px;&quot;&gt;+ labelToSubtype: final Map&amp;lt;String, Class&amp;lt;?&amp;gt;&amp;gt;&lt;/p&gt;&lt;p style=&quot;margin:0px;margin-left:4px;&quot;&gt;+ subtypeToLabel: final Map&amp;lt;Class&amp;lt;?&amp;gt;, String&amp;gt;&lt;/p&gt;&lt;hr size=&quot;1&quot; style=&quot;border-style:solid;&quot;&gt;&lt;p style=&quot;margin:0px;margin-left:4px;&quot;&gt;+ RuntimeTypeAdapterFactory(Class&amp;lt;?&amp;gt; baseType, String typeFieldName, boolean maintainType)&lt;/p&gt;&lt;p style=&quot;margin:0px;margin-left:4px;&quot;&gt;+ of(Class&amp;lt;T&amp;gt; baseType, String typeFieldName): static &amp;lt;T&amp;gt; RuntimeType AdapterFactory&amp;lt;T&amp;gt;&lt;/p&gt;&lt;p style=&quot;margin:0px;margin-left:4px;&quot;&gt;+ of(Class&amp;lt;T&amp;gt;baseType):&amp;nbsp;&lt;span style=&quot;background-color: transparent; color: light-dark(rgb(0, 0, 0), rgb(255, 255, 255));&quot;&gt;static &amp;lt;T&amp;gt; RuntimeType AdapterFactory&amp;lt;T&amp;gt;&lt;/span&gt;&lt;/p&gt;&lt;p style=&quot;margin:0px;margin-left:4px;&quot;&gt;&lt;span style=&quot;background-color: transparent; color: light-dark(rgb(0, 0, 0), rgb(255, 255, 255));&quot;&gt;+ registerSubtype(Class&amp;lt;? extends T&amp;gt; type, String label): RuntimeTypeAdapterFactory&amp;lt;T&amp;gt;&lt;/span&gt;&lt;/p&gt;&lt;p style=&quot;margin:0px;margin-left:4px;&quot;&gt;&lt;span style=&quot;background-color: transparent; color: light-dark(rgb(0, 0, 0), rgb(255, 255, 255));&quot;&gt;+&amp;nbsp;&lt;/span&gt;&lt;span style=&quot;background-color: transparent; color: light-dark(rgb(0, 0, 0), rgb(255, 255, 255));&quot;&gt;registerSubtype(Class&amp;lt;? extends T&amp;gt; type): RuntimeTypeAdapterFactory&amp;lt;T&amp;gt;&lt;/span&gt;&lt;/p&gt;&lt;p style=&quot;margin:0px;margin-left:4px;&quot;&gt;&lt;span style=&quot;background-color: transparent; color: light-dark(rgb(0, 0, 0), rgb(255, 255, 255));&quot;&gt;+ create(Gson gson, TypeToken&amp;lt;R&amp;gt; type): &amp;lt;R&amp;gt; TypeAdapter&amp;lt;R&amp;gt;&lt;/span&gt;&lt;/p&gt;&lt;p style=&quot;margin:0px;margin-left:4px;&quot;&gt;&lt;br&gt;&lt;/p&gt;" style="verticalAlign=top;align=left;overflow=fill;html=1;whiteSpace=wrap;" vertex="1" parent="1">
          <mxGeometry x="821" y="1371" width="597" height="258" as="geometry" />
        </mxCell>
        <mxCell id="4VRerpqA-6s90hHGSyJA-33" style="rounded=0;orthogonalLoop=1;jettySize=auto;html=1;entryX=-0.001;entryY=0.531;entryDx=0;entryDy=0;entryPerimeter=0;" edge="1" parent="1" source="4VRerpqA-6s90hHGSyJA-30" target="4VRerpqA-6s90hHGSyJA-31">
          <mxGeometry relative="1" as="geometry" />
        </mxCell>
        <mxCell id="4VRerpqA-6s90hHGSyJA-34" value="builds" style="edgeLabel;html=1;align=center;verticalAlign=middle;resizable=0;points=[];" vertex="1" connectable="0" parent="4VRerpqA-6s90hHGSyJA-33">
          <mxGeometry x="0.0638" y="-1" relative="1" as="geometry">
            <mxPoint as="offset" />
          </mxGeometry>
        </mxCell>
        <mxCell id="4VRerpqA-6s90hHGSyJA-36" style="edgeStyle=orthogonalEdgeStyle;rounded=0;orthogonalLoop=1;jettySize=auto;html=1;exitX=0.189;exitY=0.022;exitDx=0;exitDy=0;exitPerimeter=0;" edge="1" parent="1" source="4VRerpqA-6s90hHGSyJA-30" target="mBXEKz3svqvqHdSbfsig-62">
          <mxGeometry relative="1" as="geometry">
            <mxPoint x="407" y="1383" as="sourcePoint" />
            <mxPoint x="243" y="447" as="targetPoint" />
            <Array as="points">
              <mxPoint x="398" y="1266" />
              <mxPoint x="316" y="1266" />
              <mxPoint x="316" y="383" />
              <mxPoint x="243" y="383" />
              <mxPoint x="243" y="294" />
            </Array>
          </mxGeometry>
        </mxCell>
        <mxCell id="4VRerpqA-6s90hHGSyJA-41" value="SUPPORT SERIALIZATION FOR" style="edgeLabel;html=1;align=center;verticalAlign=middle;resizable=0;points=[];" vertex="1" connectable="0" parent="4VRerpqA-6s90hHGSyJA-36">
          <mxGeometry x="-0.8088" y="2" relative="1" as="geometry">
            <mxPoint as="offset" />
          </mxGeometry>
        </mxCell>
        <mxCell id="4VRerpqA-6s90hHGSyJA-38" style="edgeStyle=orthogonalEdgeStyle;rounded=0;orthogonalLoop=1;jettySize=auto;html=1;entryX=-0.003;entryY=0.94;entryDx=0;entryDy=0;entryPerimeter=0;" edge="1" parent="1" target="mBXEKz3svqvqHdSbfsig-120">
          <mxGeometry relative="1" as="geometry">
            <mxPoint x="395" y="1372" as="sourcePoint" />
            <mxPoint x="466" y="304" as="targetPoint" />
            <Array as="points">
              <mxPoint x="408" y="1372" />
              <mxPoint x="408" y="1374" />
              <mxPoint x="398" y="1374" />
              <mxPoint x="398" y="1266" />
              <mxPoint x="1500" y="1266" />
              <mxPoint x="1500" y="351" />
            </Array>
          </mxGeometry>
        </mxCell>
      </root>
    </mxGraphModel>
  </diagram>
</mxfile>
